<?xml version="1.0" standalone="no"?><!DOCTYPE svg PUBLIC "-//W3C//DTD SVG 1.1//EN" "http://www.w3.org/Graphics/SVG/1.1/DTD/svg11.dtd"><svg t="1622449308303" class="icon" viewBox="0 0 1024 1024" version="1.1" xmlns="http://www.w3.org/2000/svg" p-id="4029" width="128" height="128" xmlns:xlink="http://www.w3.org/1999/xlink"><defs><style type="text/css"></style></defs><path d="M505.024 383.36c57.6 0 104.448 46.912 104.448 104.512s-46.848 104.448-104.448 104.448c-57.6 0-104.448-46.848-104.448-104.448 0-57.6 46.848-104.512 104.448-104.512m0-46.4a150.912 150.912 0 1 0 0 301.824 150.912 150.912 0 0 0 0-301.824m373.12 243.008a380.672 380.672 0 0 0 0-173.952 23.232 23.232 0 1 0-45.312 10.56 334.208 334.208 0 0 1 0 152.832 23.232 23.232 0 1 0 45.248 10.56z m-27.52 17.856l3.84 0.064a23.232 23.232 0 1 0 2.048-46.4 132.8 132.8 0 0 0-5.888-0.128 23.232 23.232 0 0 0 0 46.464z m-75.84 139.712a90.432 90.432 0 0 1 75.84-139.712 23.232 23.232 0 0 0 0-46.464 136.896 136.896 0 0 0-114.752 211.52 23.232 23.232 0 0 0 38.912-25.344zM617.6 857.024a379.328 379.328 0 0 0 153.856-90.048 23.232 23.232 0 1 0-32.192-33.472 332.928 332.928 0 0 1-135.04 78.976 23.232 23.232 0 1 0 13.44 44.544z m-191.36-12.416a90.432 90.432 0 0 1 163.712 0 23.232 23.232 0 0 0 41.984-19.776 136.896 136.896 0 0 0-247.744 0 23.232 23.232 0 1 0 41.984 19.84zM245.632 768a379.776 379.776 0 0 0 152.768 89.024 23.232 23.232 0 0 0 13.44-44.48 333.312 333.312 0 0 1-134.144-78.08 23.232 23.232 0 0 0-32.064 33.536z m-78.72-170.112a90.432 90.432 0 0 1 75.392 140.48 23.232 23.232 0 0 0 38.72 25.728A136.896 136.896 0 0 0 167.04 551.36a23.232 23.232 0 1 0 0 46.464z m-5.056 0.128a93.44 93.44 0 0 1 5.12-0.128 23.232 23.232 0 1 0 0-46.464c-2.688 0-5.184 0.064-7.68 0.192a23.232 23.232 0 1 0 2.56 46.4z m-23.872-192a381.248 381.248 0 0 0 0 174.08 23.232 23.232 0 0 0 45.248-10.56 334.848 334.848 0 0 1 0-152.96 23.232 23.232 0 1 0-45.248-10.56z m28.992-17.792c-1.856 0-3.52 0-5.12-0.128a23.232 23.232 0 0 0-2.56 46.4c2.496 0.128 4.992 0.192 7.68 0.192a23.232 23.232 0 1 0 0-46.464zM242.368 247.68A90.432 90.432 0 0 1 167.04 388.16a23.232 23.232 0 1 0 0 46.464 136.896 136.896 0 0 0 114.048-212.672 23.232 23.232 0 1 0-38.72 25.728z m156.16-118.72a379.776 379.776 0 0 0-152.832 89.088 23.232 23.232 0 1 0 32.064 33.6A333.312 333.312 0 0 1 411.84 173.44a23.232 23.232 0 0 0-13.376-44.544z m191.36 12.416a90.432 90.432 0 0 1-163.712 0 23.232 23.232 0 1 0-41.984 19.776 136.832 136.832 0 0 0 247.744 0 23.232 23.232 0 0 0-41.984-19.84z m181.568 77.632A379.904 379.904 0 0 0 617.6 128.96a23.232 23.232 0 1 0-13.44 44.544 333.44 333.44 0 0 1 135.04 78.976 23.232 23.232 0 0 0 32.192-33.472z m79.168 169.152a90.432 90.432 0 0 1-75.84-139.712 23.232 23.232 0 1 0-38.912-25.344 136.896 136.896 0 0 0 114.752 211.52 23.232 23.232 0 0 0 0-46.464z m3.84-0.064l-3.84 0.064a23.232 23.232 0 0 0 0 46.464c2.112 0 3.968 0 5.888-0.128a23.232 23.232 0 0 0-2.048-46.4z" fill="#e6e6e6" p-id="4030"></path></svg>